<svg xmlns="http://www.w3.org/2000/svg" width="1100" height="640" viewBox="0 0 1100 640">
<style>
.title{font:700 30px Arial,sans-serif;fill:#111827}
.subtitle{font:400 15px Arial,sans-serif;fill:#4b5563}
.axis{font:400 12px Arial,sans-serif;fill:#4b5563}
.axis-title{font:700 14px Arial,sans-serif;fill:#111827}
.point-label{font:700 14px Arial,sans-serif}
.ref-label{font:400 13px Arial,sans-serif;fill:#111827}
</style>
<rect width="100%" height="100%" fill="#ffffff"/>
<text class="title" x="36" y="48">Cost vs. Task Completion</text>
<text class="subtitle" x="36" y="76">Mean estimated API cost per run against mean task-completion score (primary scope, all tasks and scenarios).</text>
<line x1="110" y1="520.0" x2="990" y2="520.0" stroke="#e5e7eb"/>
<text class="axis" text-anchor="end" x="100" y="524.0">0.0</text>
<line x1="110" y1="440.0" x2="990" y2="440.0" stroke="#e5e7eb"/>
<text class="axis" text-anchor="end" x="100" y="444.0">0.2</text>
<line x1="110" y1="360.0" x2="990" y2="360.0" stroke="#e5e7eb"/>
<text class="axis" text-anchor="end" x="100" y="364.0">0.4</text>
<line x1="110" y1="280.0" x2="990" y2="280.0" stroke="#e5e7eb"/>
<text class="axis" text-anchor="end" x="100" y="284.0">0.6</text>
<line x1="110" y1="200.0" x2="990" y2="200.0" stroke="#e5e7eb"/>
<text class="axis" text-anchor="end" x="100" y="204.0">0.8</text>
<line x1="110" y1="120.0" x2="990" y2="120.0" stroke="#e5e7eb"/>
<text class="axis" text-anchor="end" x="100" y="124.0">1.0</text>
<text class="axis" text-anchor="middle" x="110.0" y="544">$0.00</text>
<text class="axis" text-anchor="middle" x="232.2" y="544">$0.05</text>
<text class="axis" text-anchor="middle" x="354.4" y="544">$0.10</text>
<text class="axis" text-anchor="middle" x="476.7" y="544">$0.15</text>
<text class="axis" text-anchor="middle" x="598.9" y="544">$0.20</text>
<text class="axis" text-anchor="middle" x="721.1" y="544">$0.25</text>
<text class="axis" text-anchor="middle" x="843.3" y="544">$0.30</text>
<text class="axis" text-anchor="middle" x="965.6" y="544">$0.35</text>
<line x1="110" y1="520" x2="990" y2="520" stroke="#111827"/>
<line x1="110" y1="120" x2="110" y2="520" stroke="#111827"/>
<text class="axis-title" text-anchor="middle" x="550.0" y="572">Mean estimated cost per run (USD)</text>
<text class="axis-title" text-anchor="middle" transform="rotate(-90 30 320.0)" x="30" y="320.0">Mean task-completion score</text>
<line x1="110" y1="165.6" x2="990" y2="165.6" stroke="#111827" stroke-width="2" stroke-dasharray="7 6"/>
<text class="ref-label" x="986" y="157.6" text-anchor="end">Human reference (0.89)</text>
<circle cx="110.0" cy="348.8" r="9" fill="#8f99a8"/>
<text class="point-label" fill="#8f99a8" text-anchor="start" x="124.0" y="352.8">Rule-based ($0.000)</text>
<circle cx="249.6" cy="209.3" r="9" fill="#2563eb"/>
<text class="point-label" fill="#2563eb" text-anchor="start" x="263.6" y="201.3">Single LLM ($0.057)</text>
<circle cx="460.7" cy="213.8" r="9" fill="#0f766e"/>
<text class="point-label" fill="#0f766e" text-anchor="end" x="446.7" y="233.8">Generic agent ($0.143)</text>
<circle cx="867.4" cy="217.5" r="9" fill="#7c3aed"/>
<text class="point-label" fill="#7c3aed" text-anchor="end" x="853.4" y="207.5">Claude Code ($0.310)</text>
<circle cx="589.7" cy="220.5" r="9" fill="#e11d48"/>
<text class="point-label" fill="#e11d48" text-anchor="start" x="603.7" y="240.5">Proposed agent ($0.196)</text>
</svg>
