<svg xmlns="http://www.w3.org/2000/svg" width="1092" height="752" viewBox="0 0 1092 752">
<style>
.title{font:700 30px Arial,sans-serif;fill:#111827}
.subtitle{font:400 15px Arial,sans-serif;fill:#4b5563}
.label{font:700 15px Arial,sans-serif;fill:#111827}
.small{font:400 12px Arial,sans-serif;fill:#4b5563}
.score{font:700 24px Arial,sans-serif}
.best{font-weight:900}
.n{font:400 12px Arial,sans-serif}
</style>
<rect width="100%" height="100%" fill="#ffffff"/>
<text class="title" x="36" y="48">Task Completion by Scenario</text>
<text class="subtitle" x="36" y="76">Stage scope: primary; 20 benchmark tasks; scenario cells are task completion, right column is binary success rate.</text>
<text class="label" text-anchor="middle" x="308.0" y="108">TC1</text>
<text class="label" text-anchor="middle" x="308.0" y="126">Scratch</text>
<text class="label" text-anchor="middle" x="464.0" y="108">TC2</text>
<text class="label" text-anchor="middle" x="464.0" y="126">Good prior</text>
<text class="label" text-anchor="middle" x="620.0" y="108">TC3</text>
<text class="label" text-anchor="middle" x="620.0" y="126">Bad prior</text>
<text class="label" text-anchor="middle" x="776.0" y="108">TC4</text>
<text class="label" text-anchor="middle" x="776.0" y="126">Mixed</text>
<text class="label" text-anchor="middle" x="932.0" y="108">Overall</text>
<text class="label" text-anchor="middle" x="932.0" y="126">Success</text>
<text class="label" x="36" y="188">Human reference</text>
<rect x="230" y="142" width="148" height="74" rx="8" fill="#439284" stroke="#ffffff" stroke-width="2"/>
<text class="score" fill="#111827" text-anchor="middle" x="304.0" y="179">0.89</text>
<text class="n" fill="#111827" text-anchor="middle" x="304.0" y="200">n=20</text>
<rect x="386" y="142" width="148" height="74" rx="8" fill="#f3f4f6" stroke="#ffffff" stroke-width="2"/>
<text class="score" fill="#111827" text-anchor="middle" x="460.0" y="184">n/a</text>
<rect x="542" y="142" width="148" height="74" rx="8" fill="#f3f4f6" stroke="#ffffff" stroke-width="2"/>
<text class="score" fill="#111827" text-anchor="middle" x="616.0" y="184">n/a</text>
<rect x="698" y="142" width="148" height="74" rx="8" fill="#f3f4f6" stroke="#ffffff" stroke-width="2"/>
<text class="score" fill="#111827" text-anchor="middle" x="772.0" y="184">n/a</text>
<rect x="854" y="142" width="148" height="74" rx="8" fill="#0f766e" stroke="#ffffff" stroke-width="2"/>
<text class="score" fill="#111827" text-anchor="middle" x="928.0" y="179">1.00</text>
<text class="n" fill="#111827" text-anchor="middle" x="928.0" y="200">n=20</text>
<line x1="36" y1="220" x2="1056" y2="220" stroke="#111827" stroke-width="2" stroke-dasharray="6 5"/>
<text class="label" x="36" y="270">Rule-based</text>
<rect x="230" y="224" width="148" height="74" rx="8" fill="#b4cfb5" stroke="#ffffff" stroke-width="2"/>
<text class="score" fill="#111827" text-anchor="middle" x="304.0" y="261">0.64</text>
<text class="n" fill="#111827" text-anchor="middle" x="304.0" y="282">n=20</text>
<rect x="386" y="224" width="148" height="74" rx="8" fill="#cedcc0" stroke="#ffffff" stroke-width="2"/>
<text class="score" fill="#111827" text-anchor="middle" x="460.0" y="261">0.58</text>
<text class="n" fill="#111827" text-anchor="middle" x="460.0" y="282">n=20</text>
<rect x="542" y="224" width="148" height="74" rx="8" fill="#f5ddcc" stroke="#ffffff" stroke-width="2"/>
<text class="score" fill="#111827" text-anchor="middle" x="616.0" y="261">0.27</text>
<text class="n" fill="#111827" text-anchor="middle" x="616.0" y="282">n=20</text>
<rect x="698" y="224" width="148" height="74" rx="8" fill="#f6d9cb" stroke="#ffffff" stroke-width="2"/>
<text class="score" fill="#111827" text-anchor="middle" x="772.0" y="261">0.22</text>
<text class="n" fill="#111827" text-anchor="middle" x="772.0" y="282">n=20</text>
<rect x="854" y="224" width="148" height="74" rx="8" fill="#d7e2c4" stroke="#ffffff" stroke-width="2"/>
<text class="score" fill="#111827" text-anchor="middle" x="928.0" y="261">0.56</text>
<text class="n" fill="#111827" text-anchor="middle" x="928.0" y="282">n=80</text>
<text class="label" x="36" y="352">Single LLM</text>
<rect x="230" y="306" width="148" height="74" rx="8" fill="#489486" stroke="#ffffff" stroke-width="2"/>
<text class="score" fill="#111827" text-anchor="middle" x="304.0" y="343">0.88</text>
<text class="n" fill="#111827" text-anchor="middle" x="304.0" y="364">n=20</text>
<rect x="386" y="306" width="148" height="74" rx="8" fill="#61a291" stroke="#ffffff" stroke-width="2"/>
<text class="score" fill="#111827" text-anchor="middle" x="460.0" y="343">0.82</text>
<text class="n" fill="#111827" text-anchor="middle" x="460.0" y="364">n=20</text>
<rect x="542" y="306" width="148" height="74" rx="8" fill="#a6c7af" stroke="#111827" stroke-width="4"/>
<text class="score best" fill="#111827" text-anchor="middle" x="616.0" y="343">0.67</text>
<text class="n" fill="#111827" text-anchor="middle" x="616.0" y="364">n=20</text>
<rect x="698" y="306" width="148" height="74" rx="8" fill="#87b6a1" stroke="#111827" stroke-width="4"/>
<text class="score best" fill="#111827" text-anchor="middle" x="772.0" y="343">0.74</text>
<text class="n" fill="#111827" text-anchor="middle" x="772.0" y="364">n=20</text>
<rect x="854" y="306" width="148" height="74" rx="8" fill="#207f75" stroke="#111827" stroke-width="4"/>
<text class="score best" fill="#111827" text-anchor="middle" x="928.0" y="343">0.96</text>
<text class="n" fill="#111827" text-anchor="middle" x="928.0" y="364">n=80</text>
<text class="label" x="36" y="434">Generic agent</text>
<rect x="230" y="388" width="148" height="74" rx="8" fill="#499587" stroke="#ffffff" stroke-width="2"/>
<text class="score" fill="#111827" text-anchor="middle" x="304.0" y="425">0.87</text>
<text class="n" fill="#111827" text-anchor="middle" x="304.0" y="446">n=20</text>
<rect x="386" y="388" width="148" height="74" rx="8" fill="#6ba895" stroke="#ffffff" stroke-width="2"/>
<text class="score" fill="#111827" text-anchor="middle" x="460.0" y="425">0.80</text>
<text class="n" fill="#111827" text-anchor="middle" x="460.0" y="446">n=20</text>
<rect x="542" y="388" width="148" height="74" rx="8" fill="#a9c9b0" stroke="#ffffff" stroke-width="2"/>
<text class="score" fill="#111827" text-anchor="middle" x="616.0" y="425">0.66</text>
<text class="n" fill="#111827" text-anchor="middle" x="616.0" y="446">n=20</text>
<rect x="698" y="388" width="148" height="74" rx="8" fill="#8cb9a3" stroke="#ffffff" stroke-width="2"/>
<text class="score" fill="#111827" text-anchor="middle" x="772.0" y="425">0.73</text>
<text class="n" fill="#111827" text-anchor="middle" x="772.0" y="446">n=20</text>
<rect x="854" y="388" width="148" height="74" rx="8" fill="#268278" stroke="#ffffff" stroke-width="2"/>
<text class="score" fill="#111827" text-anchor="middle" x="928.0" y="425">0.95</text>
<text class="n" fill="#111827" text-anchor="middle" x="928.0" y="446">n=80</text>
<text class="label" x="36" y="516">Claude Code</text>
<rect x="230" y="470" width="148" height="74" rx="8" fill="#459385" stroke="#111827" stroke-width="4"/>
<text class="score best" fill="#111827" text-anchor="middle" x="304.0" y="507">0.88</text>
<text class="n" fill="#111827" text-anchor="middle" x="304.0" y="528">n=20</text>
<rect x="386" y="470" width="148" height="74" rx="8" fill="#66a593" stroke="#ffffff" stroke-width="2"/>
<text class="score" fill="#111827" text-anchor="middle" x="460.0" y="507">0.81</text>
<text class="n" fill="#111827" text-anchor="middle" x="460.0" y="528">n=20</text>
<rect x="542" y="470" width="148" height="74" rx="8" fill="#b6d0b5" stroke="#ffffff" stroke-width="2"/>
<text class="score" fill="#111827" text-anchor="middle" x="616.0" y="507">0.64</text>
<text class="n" fill="#111827" text-anchor="middle" x="616.0" y="528">n=20</text>
<rect x="698" y="470" width="148" height="74" rx="8" fill="#9ac1a9" stroke="#ffffff" stroke-width="2"/>
<text class="score" fill="#111827" text-anchor="middle" x="772.0" y="507">0.70</text>
<text class="n" fill="#111827" text-anchor="middle" x="772.0" y="528">n=20</text>
<rect x="854" y="470" width="148" height="74" rx="8" fill="#31887d" stroke="#ffffff" stroke-width="2"/>
<text class="score" fill="#111827" text-anchor="middle" x="928.0" y="507">0.93</text>
<text class="n" fill="#111827" text-anchor="middle" x="928.0" y="528">n=80</text>
<text class="label" x="36" y="598">Proposed agent</text>
<rect x="230" y="552" width="148" height="74" rx="8" fill="#4b9687" stroke="#ffffff" stroke-width="2"/>
<text class="score" fill="#111827" text-anchor="middle" x="304.0" y="589">0.87</text>
<text class="n" fill="#111827" text-anchor="middle" x="304.0" y="610">n=20</text>
<rect x="386" y="552" width="148" height="74" rx="8" fill="#4d9789" stroke="#111827" stroke-width="4"/>
<text class="score best" fill="#111827" text-anchor="middle" x="460.0" y="589">0.86</text>
<text class="n" fill="#111827" text-anchor="middle" x="460.0" y="610">n=20</text>
<rect x="542" y="552" width="148" height="74" rx="8" fill="#c4d7bb" stroke="#ffffff" stroke-width="2"/>
<text class="score" fill="#111827" text-anchor="middle" x="616.0" y="589">0.61</text>
<text class="n" fill="#111827" text-anchor="middle" x="616.0" y="610">n=20</text>
<rect x="698" y="552" width="148" height="74" rx="8" fill="#adcbb2" stroke="#ffffff" stroke-width="2"/>
<text class="score" fill="#111827" text-anchor="middle" x="772.0" y="589">0.66</text>
<text class="n" fill="#111827" text-anchor="middle" x="772.0" y="610">n=20</text>
<rect x="854" y="552" width="148" height="74" rx="8" fill="#378c7f" stroke="#ffffff" stroke-width="2"/>
<text class="score" fill="#111827" text-anchor="middle" x="928.0" y="589">0.91</text>
<text class="n" fill="#111827" text-anchor="middle" x="928.0" y="610">n=80</text>
<text class="small" x="36" y="696">Lower</text>
<rect x="82" y="684" width="65" height="14" fill="#f6d7cb"/>
<rect x="147" y="684" width="65" height="14" fill="#f4f1d0"/>
<rect x="212" y="684" width="65" height="14" fill="#6ba795"/>
<text class="small" x="288" y="696">Higher task completion</text>
<text class="small" x="36" y="720">Human reference uses available human artifacts; Overall Success is pass rate across all testcase groups.</text>
</svg>
