<svg xmlns="http://www.w3.org/2000/svg" width="1320" height="680" viewBox="0 0 1320 680">
<style>
.title{font:700 30px Arial,sans-serif;fill:#111827}
.subtitle{font:400 15px Arial,sans-serif;fill:#4b5563}
.axis{font:400 12px Arial,sans-serif;fill:#4b5563}
.label{font:700 14px Arial,sans-serif;fill:#111827}
.legend{font:400 13px Arial,sans-serif;fill:#111827}
</style>
<rect width="100%" height="100%" fill="#ffffff"/>
<text class="title" x="36" y="48">Task Completion by Scenario</text>
<text class="subtitle" x="36" y="76">Grouped bar view of the same primary scores, with an overall binary success-rate group on the right.</text>
<line x1="90" y1="538.0" x2="1210" y2="538.0" stroke="#e5e7eb"/>
<text class="axis" text-anchor="end" x="80" y="542.0">0.0</text>
<line x1="90" y1="454.0" x2="1210" y2="454.0" stroke="#e5e7eb"/>
<text class="axis" text-anchor="end" x="80" y="458.0">0.2</text>
<line x1="90" y1="370.0" x2="1210" y2="370.0" stroke="#e5e7eb"/>
<text class="axis" text-anchor="end" x="80" y="374.0">0.4</text>
<line x1="90" y1="286.0" x2="1210" y2="286.0" stroke="#e5e7eb"/>
<text class="axis" text-anchor="end" x="80" y="290.0">0.6</text>
<line x1="90" y1="202.0" x2="1210" y2="202.0" stroke="#e5e7eb"/>
<text class="axis" text-anchor="end" x="80" y="206.0">0.8</text>
<line x1="90" y1="118.0" x2="1210" y2="118.0" stroke="#e5e7eb"/>
<text class="axis" text-anchor="end" x="80" y="122.0">1.0</text>
<line x1="90" y1="538" x2="1210" y2="538" stroke="#111827"/>
<line x1="90" y1="118" x2="90" y2="538" stroke="#111827"/>
<rect x="123.5" y="165.9" width="22" height="372.1" fill="#111827" rx="4"/>
<rect x="150.5" y="269.8" width="22" height="268.2" fill="#8f99a8" rx="4"/>
<rect x="177.5" y="169.9" width="22" height="368.1" fill="#2563eb" rx="4"/>
<rect x="204.5" y="171.6" width="22" height="366.4" fill="#0f766e" rx="4"/>
<rect x="231.5" y="167.2" width="22" height="370.8" fill="#7c3aed" rx="4"/>
<rect x="258.5" y="172.6" width="22" height="365.4" fill="#e11d48" rx="4"/>
<text class="label" text-anchor="middle" x="202.0" y="570">TC1</text>
<text class="label" text-anchor="middle" x="202.0" y="587">Scratch</text>
<rect x="374.5" y="293.0" width="22" height="245.0" fill="#8f99a8" rx="4"/>
<rect x="401.5" y="192.8" width="22" height="345.2" fill="#2563eb" rx="4"/>
<rect x="428.5" y="202.6" width="22" height="335.4" fill="#0f766e" rx="4"/>
<rect x="455.5" y="197.8" width="22" height="340.2" fill="#7c3aed" rx="4"/>
<rect x="482.5" y="174.9" width="22" height="363.1" fill="#e11d48" rx="4"/>
<text class="label" text-anchor="middle" x="426.0" y="570">TC2</text>
<text class="label" text-anchor="middle" x="426.0" y="587">Good prior</text>
<rect x="598.5" y="424.8" width="22" height="113.2" fill="#8f99a8" rx="4"/>
<rect x="625.5" y="256.2" width="22" height="281.8" fill="#2563eb" rx="4"/>
<rect x="652.5" y="259.4" width="22" height="278.6" fill="#0f766e" rx="4"/>
<rect x="679.5" y="271.1" width="22" height="266.9" fill="#7c3aed" rx="4"/>
<rect x="706.5" y="283.8" width="22" height="254.2" fill="#e11d48" rx="4"/>
<text class="label" text-anchor="middle" x="650.0" y="570">TC3</text>
<text class="label" text-anchor="middle" x="650.0" y="587">Bad prior</text>
<rect x="822.5" y="445.4" width="22" height="92.6" fill="#8f99a8" rx="4"/>
<rect x="849.5" y="228.1" width="22" height="309.9" fill="#2563eb" rx="4"/>
<rect x="876.5" y="232.4" width="22" height="305.6" fill="#0f766e" rx="4"/>
<rect x="903.5" y="245.5" width="22" height="292.5" fill="#7c3aed" rx="4"/>
<rect x="930.5" y="262.9" width="22" height="275.1" fill="#e11d48" rx="4"/>
<text class="label" text-anchor="middle" x="874.0" y="570">TC4</text>
<text class="label" text-anchor="middle" x="874.0" y="587">Mixed</text>
<rect x="1019.5" y="118.0" width="22" height="420.0" fill="#111827" rx="4"/>
<rect x="1046.5" y="301.8" width="22" height="236.2" fill="#8f99a8" rx="4"/>
<rect x="1073.5" y="133.8" width="22" height="404.2" fill="#2563eb" rx="4"/>
<rect x="1100.5" y="139.0" width="22" height="399.0" fill="#0f766e" rx="4"/>
<rect x="1127.5" y="149.5" width="22" height="388.5" fill="#7c3aed" rx="4"/>
<rect x="1154.5" y="154.8" width="22" height="383.2" fill="#e11d48" rx="4"/>
<text class="label" text-anchor="middle" x="1098.0" y="570">Overall</text>
<text class="label" text-anchor="middle" x="1098.0" y="587">Success</text>
<rect x="120" y="606" width="16" height="16" fill="#111827" rx="3"/>
<text class="legend" x="144" y="619">Human reference</text>
<rect x="310" y="606" width="16" height="16" fill="#8f99a8" rx="3"/>
<text class="legend" x="334" y="619">Rule-based</text>
<rect x="500" y="606" width="16" height="16" fill="#2563eb" rx="3"/>
<text class="legend" x="524" y="619">Single LLM</text>
<rect x="690" y="606" width="16" height="16" fill="#0f766e" rx="3"/>
<text class="legend" x="714" y="619">Generic agent</text>
<rect x="880" y="606" width="16" height="16" fill="#7c3aed" rx="3"/>
<text class="legend" x="904" y="619">Claude Code</text>
<rect x="1070" y="606" width="16" height="16" fill="#e11d48" rx="3"/>
<text class="legend" x="1094" y="619">Proposed agent</text>
</svg>
